<?xml version="1.0" encoding="utf-8"?>
<!-- Generator: Adobe Illustrator 27.8.1, SVG Export Plug-In . SVG Version: 6.00 Build 0)  -->
<svg version="1.1" id="Layer_1" xmlns="http://www.w3.org/2000/svg" xmlns:xlink="http://www.w3.org/1999/xlink" x="0px" y="0px"
	 viewBox="0 0 612 384" style="enable-background:new 0 0 612 384;" xml:space="preserve">
<style type="text/css">
	.st0{fill:#185A7B;}
	.st1{fill:#204888;}
	.st2{fill:#2F6DB6;}
	.st3{fill:url(#SVGID_1_);}
	.st4{fill:url(#SVGID_00000031900106342378191400000014992027673204020664_);}
	.st5{fill:#1C3766;}
	.st6{fill:#FFFFFF;}
	.st7{fill:#0095DA;}
</style>
<g>
	<g>
		<path class="st7" d="M163.52,105.92c0.12,5.42-0.33,11.1-1.35,16.78c-0.14,0.76-0.28,1.5-0.44,2.24c-0.12,0.57-0.24,1.13-0.38,1.7
			c-0.08,0.38-0.17,0.76-0.26,1.13c-0.07,0.35-0.17,0.71-0.25,1.05c-0.13,0.47-0.25,0.95-0.38,1.41c-0.32,1.19-0.66,2.36-1.03,3.52
			c-0.21,0.65-0.43,1.29-0.64,1.93c-0.02,0.05-0.04,0.09-0.05,0.14c-0.19,0.53-0.38,1.04-0.58,1.56c-0.98-0.47-2-0.96-3.04-1.48
			c-0.43-0.21-0.85-0.43-1.29-0.64c-3.17-1.58-6.53-3.36-9.79-5.42c-0.31-0.19-0.61-0.39-0.92-0.59l-6.2-4.58l-1.69-1.52
			c-0.26-0.25-0.52-0.5-0.77-0.74l-2.88-3.19c-0.21-0.27-0.44-0.56-0.65-0.84c-0.09-0.13-0.19-0.26-0.28-0.39
			c-0.31-0.4-0.6-0.84-0.89-1.3c-0.82-1.25-1.65-2.72-2.53-4.38c-0.24-0.43-0.46-0.85-0.67-1.3c-0.45-0.89-0.9-1.83-1.36-2.81
			c-0.46-0.99-0.93-2.03-1.42-3.12c-0.24-0.56-0.47-1.11-0.72-1.68c-0.48-1.13-0.97-2.33-1.46-3.56c-0.5-1.23-0.99-2.5-1.5-3.83
			c0.48-0.17,0.98-0.33,1.48-0.48c0.78-0.25,1.57-0.48,2.37-0.71c0.12-0.05,0.24-0.07,0.37-0.11c0.85-0.24,1.7-0.46,2.56-0.67
			c0.53-0.14,1.06-0.26,1.59-0.38c0.65-0.14,1.29-0.28,1.95-0.41c0.65-0.13,1.3-0.26,1.96-0.38c4.89-0.87,9.79-1.3,14.53-1.3
			c0.73,0,1.46,0.01,2.2,0.04c0.45,0.01,0.89,0.02,1.32,0.05c0.25,0.01,0.5,0.04,0.74,0.05c0.56,0.02,1.11,0.06,1.67,0.11
			c0.44,0.04,0.86,0.07,1.29,0.12c0.31,0.02,0.6,0.06,0.9,0.09c0.5,0.05,0.98,0.11,1.46,0.18c0.09,0.01,0.2,0.02,0.3,0.05
			c0.05,0.01,0.11,0.01,0.15,0.02c0.39,0.05,0.78,0.11,1.17,0.18c0.05,0,0.11,0.01,0.15,0.02c0.21,0.02,0.44,0.06,0.65,0.11
			c0.37,0.06,0.73,0.12,1.09,0.2c0.2,0.04,0.41,0.07,0.63,0.12c0.06,0.01,0.11,0.02,0.17,0.04c0.43,0.08,0.85,0.18,1.28,0.28
			c0.01,0,0.02,0,0.04,0.01c0.04,0.14,0.07,0.28,0.09,0.44c0.12,0.58,0.24,1.17,0.34,1.77c0.01,0.12,0.04,0.22,0.05,0.34
			c0.09,0.54,0.18,1.1,0.26,1.65c0.08,0.64,0.17,1.29,0.24,1.94s0.14,1.31,0.19,1.96c0,0.01,0,0.02,0,0.02
			c0.11,1.17,0.17,2.36,0.2,3.56C163.51,105.24,163.52,105.57,163.52,105.92z"/>
		<path class="st7" d="M160.77,88.1c-0.57-0.11-1.15-0.21-1.74-0.31c-0.39-0.07-0.78-0.13-1.18-0.19c-0.04,0-0.06-0.01-0.09-0.01
			c-0.34-0.05-0.69-0.09-1.03-0.13c-0.76-0.11-1.51-0.2-2.29-0.26c-0.65-0.07-1.31-0.13-1.98-0.17c-0.12-0.02-0.25-0.02-0.37-0.04
			h-0.11c-0.44-0.04-0.89-0.06-1.33-0.07c-0.14-0.01-0.3-0.02-0.45-0.02c-0.06,0-0.12-0.01-0.18,0c-0.38-0.02-0.77-0.04-1.15-0.04
			c-3.15-0.08-6.39,0.02-9.64,0.32c-0.64,0.05-1.28,0.12-1.91,0.19c-0.64,0.07-1.28,0.15-1.91,0.24c-1.28,0.17-2.56,0.37-3.84,0.59
			c-0.41,0.08-0.83,0.15-1.23,0.24c-0.41,0.07-0.83,0.15-1.23,0.25c-1,0.2-2.01,0.43-3,0.67c-0.66,0.15-1.32,0.32-1.97,0.5
			c-0.78,0.2-1.56,0.43-2.33,0.65c-0.07,0.02-0.13,0.04-0.2,0.06c0.07-0.15,0.15-0.31,0.24-0.45c0.14-0.27,0.28-0.53,0.43-0.79
			c0.41-0.74,0.85-1.48,1.29-2.19c0.25-0.41,0.51-0.82,0.77-1.22c0.31-0.47,0.61-0.93,0.92-1.37c0.12-0.17,0.22-0.33,0.34-0.48
			c0.31-0.43,0.61-0.85,0.92-1.25c0.21-0.28,0.43-0.56,0.64-0.82c0.04-0.05,0.07-0.09,0.11-0.14c0.2-0.25,0.4-0.5,0.6-0.74
			c0.28-0.34,0.58-0.69,0.87-1c0.32-0.37,0.64-0.71,0.97-1.05c0.33-0.34,0.66-0.67,0.99-0.99c0.31-0.3,0.61-0.59,0.92-0.87
			c0.02-0.01,0.05-0.04,0.07-0.06c0.34-0.3,0.67-0.58,1.02-0.86c0.33-0.27,0.67-0.54,1.02-0.79c0.33-0.25,0.66-0.48,1-0.72
			c0.01-0.01,0.02-0.01,0.02-0.01c0.34-0.22,0.69-0.45,1.03-0.65c0.34-0.21,0.7-0.41,1.04-0.59h0.08c6.39,0,12.56,1.32,18.35,3.95
			c0.65,0.78,1.26,1.63,1.84,2.56c0.24,0.37,0.46,0.73,0.67,1.12C158.91,83.19,159.93,85.53,160.77,88.1z"/>
		<path class="st7" d="M173.04,91.98c-0.5-0.24-1.02-0.46-1.54-0.67c-0.25-0.12-0.51-0.22-0.77-0.32c-0.19-0.08-0.38-0.15-0.58-0.22
			c-0.5-0.2-0.99-0.38-1.51-0.56c-0.51-0.18-1.03-0.35-1.56-0.52c-0.33-0.12-0.67-0.21-1.02-0.32c-0.19-0.71-0.39-1.39-0.6-2.08
			c-0.15-0.51-0.32-1.02-0.5-1.5c-0.19-0.54-0.38-1.09-0.59-1.61c-0.22-0.59-0.46-1.17-0.71-1.74c1.88,1.42,3.64,2.98,5.29,4.68
			C170.44,88.66,171.8,90.27,173.04,91.98z"/>
		<path class="st7" d="M127.55,74.5c-0.07,0.07-0.15,0.14-0.22,0.22c-0.15,0.14-0.32,0.31-0.47,0.46c-0.17,0.17-0.33,0.33-0.5,0.51
			c-0.58,0.59-1.15,1.22-1.7,1.87c-0.22,0.25-0.44,0.51-0.65,0.77c-0.4,0.48-0.8,0.99-1.19,1.5c-0.22,0.31-0.45,0.6-0.67,0.92
			c-0.44,0.58-0.85,1.18-1.25,1.8c-0.25,0.37-0.5,0.73-0.73,1.11c-0.35,0.53-0.7,1.09-1.03,1.65c-0.3,0.5-0.59,1.02-0.87,1.54
			c-0.25,0.43-0.48,0.85-0.71,1.29c-0.05,0.09-0.11,0.19-0.15,0.28c0,0-0.01-0.01-0.01-0.02c-0.11-0.33-0.21-0.67-0.32-1.02v-0.01
			c-0.12-0.37-0.22-0.73-0.33-1.1c-0.33-1.12-0.65-2.3-0.92-3.5c-0.09-0.38-0.18-0.76-0.25-1.15c-0.05-0.19-0.08-0.39-0.12-0.59
			c-0.07-0.34-0.13-0.7-0.19-1.05c-0.05-0.27-0.09-0.54-0.13-0.82C119.01,77,123.2,75.43,127.55,74.5z"/>
		<path class="st7" d="M181.53,118.14c0,0.7-0.02,1.41-0.06,2.23c-0.28,0.53-0.59,1.05-0.93,1.57c-0.12,0.19-0.24,0.38-0.37,0.56
			c-0.04,0.06-0.07,0.11-0.11,0.15c-0.22,0.33-0.46,0.65-0.7,0.97c-0.24,0.32-0.48,0.63-0.74,0.93c-0.02,0.05-0.06,0.09-0.11,0.13
			c-0.58,0.71-1.21,1.39-1.88,2.08c-0.25,0.26-0.51,0.52-0.77,0.77c-0.27,0.25-0.53,0.51-0.82,0.76c-0.01,0.02-0.02,0.04-0.05,0.05
			c-0.53,0.48-1.09,0.97-1.67,1.44c-1.18,0.96-2.43,1.9-3.78,2.8c-0.48,0.33-0.98,0.65-1.49,0.97c-0.57,0.37-1.16,0.72-1.76,1.06
			c-0.65,0.38-1.3,0.74-1.98,1.1c-0.21,0.12-0.44,0.24-0.66,0.34c0.31-0.9,0.59-1.82,0.85-2.74c0.14-0.46,0.27-0.92,0.39-1.38
			c0.77-2.73,1.39-5.54,1.91-8.41c0.99-5.49,1.48-10.9,1.48-16.11c0-0.66-0.01-1.32-0.02-1.97c0-0.15-0.01-0.31-0.01-0.45
			c-0.02-0.65-0.05-1.29-0.08-1.93c-0.04-0.71-0.08-1.43-0.14-2.14c-0.06-0.7-0.13-1.38-0.2-2.07c-0.07-0.63-0.15-1.25-0.24-1.87
			c-0.01-0.11-0.02-0.21-0.05-0.31c-0.07-0.46-0.13-0.93-0.21-1.39c-0.02-0.19-0.06-0.39-0.09-0.58c0.41,0.14,0.83,0.3,1.23,0.46
			c0.33,0.13,0.67,0.26,1,0.4c0.05,0.01,0.09,0.04,0.15,0.06c0.35,0.15,0.7,0.31,1.04,0.46c0.37,0.17,0.72,0.33,1.08,0.51
			c0.45,0.22,0.9,0.45,1.32,0.7c0.45,0.24,0.87,0.48,1.29,0.74c0.3,0.18,0.59,0.37,0.87,0.57c0.2,0.13,0.4,0.26,0.59,0.4
			c0.34,0.24,0.67,0.48,1,0.73c0.32,0.25,0.64,0.51,0.93,0.77c0,0,0,0.01,0.01,0.01c0.21,0.44,0.44,0.86,0.66,1.3
			C180.49,107.04,181.53,112.53,181.53,118.14z"/>
		<path class="st7" d="M112.97,155.81c-4.75-3.02-8.9-6.93-12.22-11.48c0.83,0.39,1.68,0.76,2.55,1.09c0.37,0.15,0.74,0.3,1.12,0.43
			c0.44,0.17,0.87,0.32,1.32,0.46c0.41,0.14,0.83,0.27,1.25,0.4c0.4,0.13,0.82,0.25,1.23,0.35c0.54,0.17,1.11,0.31,1.67,0.45
			c0.09,0.38,0.2,0.76,0.32,1.12c0.06,0.2,0.12,0.4,0.18,0.6c0.11,0.34,0.22,0.69,0.33,1.03c0.12,0.37,0.25,0.74,0.38,1.1
			c0.08,0.25,0.18,0.5,0.27,0.73c0.09,0.27,0.2,0.53,0.31,0.79c0.13,0.34,0.26,0.67,0.41,1
			C112.37,154.54,112.66,155.18,112.97,155.81z"/>
		<path class="st7" d="M154.96,144.83c-0.11,0.21-0.2,0.41-0.31,0.61c-0.11,0.21-0.21,0.41-0.32,0.61
			c-0.22,0.43-0.45,0.84-0.69,1.25c-0.22,0.41-0.46,0.83-0.7,1.22c-0.46,0.8-0.95,1.57-1.43,2.33c-0.38,0.58-0.74,1.12-1.13,1.67
			c-0.28,0.41-0.58,0.82-0.87,1.21c-0.34,0.46-0.69,0.91-1.04,1.33c-0.34,0.43-0.7,0.84-1.06,1.25c-0.31,0.37-0.63,0.71-0.96,1.05
			c-0.4,0.43-0.8,0.84-1.22,1.24c-0.25,0.24-0.48,0.46-0.73,0.69c-0.19,0.17-0.37,0.33-0.56,0.48c-0.26,0.22-0.51,0.44-0.77,0.64
			c-0.72,0.59-1.44,1.12-2.17,1.59c-0.33,0.22-0.67,0.44-1.02,0.64c-0.01,0.01-0.01,0.01-0.02,0.01c-1.11,0.08-2.13,0.12-3.07,0.12
			c-5.34,0-10.57-0.93-15.56-2.8h-0.01c-0.06-0.06-0.12-0.13-0.15-0.19c-0.25-0.27-0.48-0.54-0.71-0.83
			c-0.02-0.04-0.05-0.06-0.07-0.09c-0.31-0.38-0.6-0.78-0.89-1.19c-0.15-0.21-0.3-0.43-0.44-0.64c-0.14-0.22-0.27-0.44-0.41-0.66
			c-0.28-0.46-0.56-0.92-0.82-1.41c-0.2-0.38-0.4-0.76-0.59-1.16c-0.01-0.02-0.02-0.05-0.04-0.08c-0.13-0.25-0.25-0.5-0.35-0.76
			c-0.02-0.05-0.05-0.11-0.07-0.15c-0.15-0.33-0.31-0.67-0.45-1.02c-0.2-0.5-0.4-0.99-0.59-1.51c-0.21-0.56-0.41-1.13-0.6-1.71
			v-0.01c0.43,0.07,0.85,0.13,1.29,0.19c0.17,0.02,0.34,0.05,0.51,0.07c0.63,0.08,1.25,0.17,1.89,0.22
			c0.04,0.01,0.07,0.01,0.11,0.01c0.57,0.07,1.13,0.12,1.71,0.17c0.57,0.05,1.15,0.08,1.72,0.12c0.72,0.04,1.45,0.07,2.17,0.09h0.08
			c0.73,0.02,1.46,0.04,2.2,0.04c0.01,0,0.01,0,0.02,0c5,0,10.16-0.47,15.36-1.39c0.77-0.14,1.52-0.28,2.28-0.44
			c0.43-0.08,0.85-0.18,1.28-0.27c0.59-0.13,1.17-0.26,1.76-0.4c0.58-0.14,1.16-0.28,1.74-0.44c0.58-0.15,1.15-0.31,1.72-0.47
			c0.57-0.15,1.13-0.32,1.7-0.5c0.48-0.15,0.97-0.31,1.45-0.46c0.04-0.01,0.08-0.02,0.12-0.04
			C154.5,144.98,154.72,144.91,154.96,144.83z"/>
		<path class="st7" d="M112.84,98.91c-0.6,1.71-1.17,3.46-1.67,5.25c-0.11,0.38-0.21,0.74-0.31,1.12c-0.14,0.48-0.27,0.98-0.39,1.48
			c-0.14,0.56-0.28,1.11-0.4,1.68c-0.04,0.14-0.07,0.27-0.09,0.41c-0.11,0.43-0.19,0.85-0.28,1.28c-0.09,0.4-0.18,0.79-0.25,1.19
			c-0.13,0.61-0.25,1.23-0.35,1.84c-1.09,6.06-1.57,12.16-1.43,17.98c0.01,0.43,0.02,0.85,0.05,1.28c0.02,0.78,0.06,1.56,0.12,2.33
			c0.02,0.39,0.06,0.78,0.08,1.16c0.09,1.17,0.22,2.33,0.38,3.46c0.06,0.43,0.12,0.85,0.18,1.26c0.08,0.56,0.17,1.12,0.27,1.67
			c-0.66-0.2-1.31-0.4-1.94-0.63c-0.64-0.21-1.25-0.45-1.85-0.69c-0.02,0-0.04-0.01-0.05-0.01c-0.56-0.22-1.1-0.46-1.63-0.7
			c-0.08-0.02-0.15-0.06-0.21-0.09c-0.48-0.21-0.95-0.44-1.41-0.67c-0.33-0.17-0.64-0.34-0.96-0.51c-0.52-0.3-1.04-0.59-1.52-0.9
			c-0.21-0.14-0.44-0.27-0.64-0.41c-0.24-0.15-0.46-0.31-0.67-0.46c-0.3-0.2-0.58-0.41-0.85-0.63c-0.21-0.17-0.41-0.33-0.61-0.5
			c-0.19-0.17-0.39-0.33-0.58-0.5c-2.36-5.54-3.57-11.41-3.57-17.46c0-0.67,0.02-1.42,0.07-2.23c0.05-0.09,0.09-0.19,0.15-0.28
			c0.19-0.34,0.39-0.69,0.6-1.02c0.22-0.35,0.45-0.71,0.7-1.06c0.86-1.23,1.84-2.43,2.97-3.61c0.25-0.26,0.5-0.52,0.76-0.78
			c0.09-0.09,0.2-0.19,0.31-0.3c0.21-0.21,0.45-0.43,0.67-0.64c0.46-0.43,0.95-0.85,1.43-1.26c0.25-0.21,0.51-0.43,0.76-0.63
			c2.09-1.7,4.47-3.31,7.05-4.78c0.53-0.31,1.08-0.6,1.62-0.89c0.53-0.3,1.08-0.58,1.63-0.85C111.58,99.5,112.2,99.19,112.84,98.91z
			"/>
		<path class="st7" d="M114.02,93.24c-0.13,0.06-0.27,0.12-0.4,0.18c-0.79,0.32-1.56,0.65-2.32,1c-0.32,0.14-0.64,0.28-0.96,0.44
			c-1.35,0.64-2.65,1.3-3.91,2c-0.35,0.19-0.71,0.39-1.05,0.59c-0.45,0.25-0.89,0.51-1.32,0.78c-0.77,0.46-1.52,0.93-2.26,1.42
			c-0.28,0.2-0.57,0.39-0.85,0.59c-1.04,0.72-2.03,1.45-2.99,2.21c-0.35,0.28-0.7,0.57-1.04,0.86c-1.06,0.89-2.07,1.81-3,2.75
			c2.71-9.65,8.64-18.19,16.87-24.14c0.07,0.4,0.15,0.79,0.25,1.18c0.27,1.31,0.6,2.59,0.95,3.8c0.33,1.18,0.69,2.32,1.02,3.36
			c0,0,0.01,0.01,0.01,0.02c0.14,0.45,0.28,0.87,0.43,1.28c0.13,0.38,0.25,0.74,0.38,1.09c0.06,0.14,0.11,0.28,0.14,0.41
			C113.99,93.12,114.01,93.18,114.02,93.24z"/>
		<path class="st7" d="M179.86,130.21c-1.39,5-3.66,9.72-6.72,13.98c-5.86,8.14-14.18,13.99-23.58,16.76
			c0.01-0.01,0.01-0.01,0.02-0.02c0.39-0.41,0.78-0.83,1.17-1.26c0.09-0.12,0.2-0.25,0.32-0.37c0.5-0.58,0.98-1.17,1.46-1.77
			c0.72-0.92,1.43-1.88,2.13-2.87c0.97-1.41,1.89-2.89,2.79-4.45c0.32-0.57,0.64-1.15,0.96-1.74c0.06-0.11,0.12-0.21,0.18-0.33
			c0.61-1.16,1.19-2.35,1.76-3.59c0.32-0.7,0.64-1.41,0.93-2.11c0.22-0.09,0.45-0.19,0.66-0.31c0.22-0.08,0.45-0.19,0.66-0.3
			c0.71-0.32,1.39-0.65,2.08-0.98c0.69-0.34,1.35-0.69,2.01-1.04c0.06-0.02,0.12-0.06,0.17-0.09c1.37-0.72,2.69-1.5,3.95-2.3
			c1.26-0.8,2.47-1.63,3.61-2.49c0.57-0.41,1.1-0.84,1.63-1.25C177.41,132.53,178.69,131.39,179.86,130.21z"/>
		<path class="st7" d="M153.46,140.34c-0.18,0.07-0.35,0.13-0.53,0.19c-0.04,0.01-0.06,0.02-0.09,0.02
			c-0.08,0.02-0.15,0.06-0.24,0.08c-0.43,0.14-0.86,0.27-1.3,0.4c-0.43,0.14-0.86,0.27-1.29,0.39c-0.65,0.19-1.3,0.37-1.95,0.53
			c-0.54,0.15-1.09,0.28-1.64,0.41c-0.56,0.14-1.11,0.26-1.67,0.39c-0.08,0.02-0.18,0.04-0.26,0.06c-1.03,0.21-2.07,0.41-3.11,0.6
			c-5.42,0.96-10.79,1.41-15.94,1.31c-0.35-0.01-0.71-0.02-1.05-0.04c-0.45-0.01-0.89-0.02-1.32-0.05
			c-0.58-0.04-1.16-0.07-1.74-0.11c-0.08-0.01-0.15-0.01-0.24-0.02c-0.7-0.06-1.37-0.12-2.06-0.19c-0.02-0.01-0.04-0.01-0.06-0.01
			c-0.28-0.04-0.57-0.07-0.85-0.11h-0.04c-0.31-0.04-0.61-0.07-0.92-0.12c-0.47-0.07-0.95-0.14-1.39-0.21
			c-0.58-0.09-1.15-0.19-1.72-0.31c-0.08-0.01-0.17-0.02-0.25-0.05h-0.01v-0.01c-0.08-0.38-0.17-0.76-0.22-1.15
			c-0.07-0.31-0.13-0.63-0.18-0.95c-0.15-0.83-0.28-1.67-0.4-2.53c-0.06-0.4-0.11-0.82-0.15-1.23c-0.02-0.22-0.06-0.46-0.07-0.7
			c-0.02-0.19-0.05-0.39-0.06-0.58c-0.11-1.13-0.2-2.28-0.25-3.45c-0.02-0.47-0.05-0.97-0.06-1.45c-0.06-1.78-0.05-3.59,0.02-5.42
			c0.01-0.35,0.02-0.72,0.05-1.09c0.02-0.47,0.05-0.95,0.08-1.42c0.05-0.64,0.09-1.28,0.15-1.91c0.22-2.54,0.57-5.1,1.03-7.67
			c0.26-1.46,0.57-2.92,0.9-4.35c0.17-0.72,0.34-1.43,0.52-2.14c0.35-1.38,0.74-2.75,1.17-4.09c0.07-0.24,0.14-0.47,0.22-0.7
			c0.17-0.52,0.33-1.04,0.51-1.55c1.64,4.11,3.23,7.73,4.74,10.82c0.2,0.41,0.39,0.8,0.59,1.19l2.35,4.32
			c0.84,1.42,1.64,2.65,2.43,3.7c0.33,0.45,0.69,0.9,1.04,1.32c0.01,0.02,0.02,0.04,0.04,0.05c0.14,0.17,0.27,0.33,0.41,0.5
			c0.3,0.35,0.6,0.69,0.91,1.03c0.01,0.01,0.02,0.04,0.05,0.05c0.19,0.21,0.39,0.44,0.59,0.64c0.28,0.3,0.57,0.6,0.86,0.89
			c0.2,0.2,0.4,0.39,0.6,0.59c0.93,0.91,1.9,1.76,2.91,2.59c0.52,0.44,1.05,0.85,1.59,1.26c1.11,0.86,2.26,1.68,3.41,2.46
			c0.57,0.38,1.13,0.74,1.7,1.11c0.97,0.63,1.95,1.22,2.93,1.78l1.17,0.67c0.59,0.34,1.18,0.67,1.77,0.98
			c0.66,0.37,1.31,0.71,1.95,1.04C150.6,138.94,152.05,139.66,153.46,140.34z"/>
	</g>
	<g>
		<path class="st7" d="M214.59,296.84H191.5c-29.11,0-59.23-22.36-59.23-59.78V170.1h15.14v66.96c0,32.36,27.04,44.42,44.09,44.42
			h23.09V296.84z"/>
	</g>
	<path class="st7" d="M511.02,219.14c-9.14-8.59-22.48-8.41-24.99-8.29h-98.89l-0.15,0l-0.21,0.01c-0.07,0-7.35,0.23-11.71-3.96
		c-2.44-2.35-3.63-5.81-3.63-10.59c0-10.1,10.24-12.22,18.83-12.22h99.65c3.12,0.21,6.78,1.82,6.78,8.24h15.36
		c0-16.94-13.01-23.39-21.76-23.6l-100.02,0c-21.09,0-34.19,10.57-34.19,27.58c0,11.37,4.61,18.13,8.48,21.8
		c8.66,8.21,20.49,8.19,22.74,8.11h98.92l0.43-0.01c2.5-0.13,9.88,0.37,13.87,4.17c2.11,2,3.13,4.85,3.13,8.72
		c0,14.3-15.19,15.17-18.2,15.2h-265.3c-24.2,0-30.27-6.24-30.58-8.62l0.01-25.81h145.95v-5.32h0.41v-20.56l-0.02-0.54
		c-0.07-1.06-2.27-26.04-40.49-26.04h-82.58c-13.36,0-38.62,7.53-38.62,36.01v41.16c-0.15,2.19,0.05,7.47,4.59,12.78
		c6.98,8.16,20.88,12.3,41.32,12.3h265.3c0,0,0,0,0.01,0c0.86,0,8.33-0.1,16.04-3.51c11.29-4.99,17.51-14.6,17.51-27.05
		C519.03,230.96,516.26,224.06,511.02,219.14z M212.87,182.75h82.58c21.88,0,24.82,10.08,25.15,11.75v14.72h-131l0-5.82
		C189.61,183.54,210.52,182.77,212.87,182.75z"/>
	<g>
		<path class="st7" d="M226.51,279.54v18.54h-3.95v-18.54H226.51z"/>
		<path class="st7" d="M229.74,283.89c0.69-1.43,1.66-2.55,2.9-3.35c1.24-0.8,2.64-1.2,4.21-1.2c1.92,0,3.57,0.58,4.94,1.74
			c1.37,1.16,2.28,2.75,2.75,4.75h-4.34c-0.32-0.78-0.78-1.36-1.37-1.77c-0.59-0.4-1.27-0.61-2.02-0.61c-1.22,0-2.2,0.49-2.95,1.45
			c-0.75,0.97-1.13,2.26-1.13,3.88c0,1.62,0.38,2.91,1.13,3.88c0.75,0.97,1.74,1.45,2.95,1.45c0.75,0,1.43-0.2,2.02-0.61
			c0.59-0.41,1.05-0.99,1.37-1.77h4.34c-0.46,2.01-1.38,3.59-2.75,4.74c-1.37,1.15-3.02,1.73-4.94,1.73c-1.57,0-2.97-0.4-4.21-1.2
			c-1.24-0.8-2.2-1.91-2.9-3.34c-0.69-1.43-1.04-3.05-1.04-4.89C228.7,286.96,229.05,285.32,229.74,283.89z"/>
		<path class="st7" d="M261.81,283.88c-0.73-1.45-1.73-2.57-3-3.38c-0.34-0.23-0.69-0.42-1.06-0.58v4.96
			c0.77,0.98,1.13,2.27,1.13,3.88c0,1.63-0.38,2.93-1.16,3.91c-0.78,1-1.82,1.49-3.1,1.49c-1.31,0-2.36-0.49-3.13-1.48
			c-0.78-0.97-1.17-2.28-1.17-3.92c0-1.61,0.38-2.91,1.12-3.87v-4.94c-0.34,0.16-0.68,0.34-1.01,0.55
			c-1.27,0.81-2.28,1.93-3.03,3.38c-0.74,1.44-1.12,3.06-1.12,4.88c0,1.82,0.38,3.45,1.12,4.9c0.74,1.45,1.75,2.58,3.03,3.39
			c1.26,0.81,2.66,1.21,4.19,1.21s2.91-0.4,4.17-1.21s2.26-1.94,3-3.39c0.74-1.45,1.11-3.09,1.11-4.9
			C262.9,286.94,262.54,285.31,261.81,283.88z"/>
		<path class="st7" d="M279.59,298.08h-3.95l-6.6-11.44v11.44h-3.95v-18.54h3.95l6.6,11.49v-11.49h3.95V298.08z"/>
		<path class="st7" d="M286.39,279.54v18.54h-3.95v-18.54H286.39z"/>
		<path class="st7" d="M289.63,283.89c0.69-1.43,1.66-2.55,2.9-3.35c1.24-0.8,2.64-1.2,4.21-1.2c1.92,0,3.57,0.58,4.94,1.74
			c1.37,1.16,2.28,2.75,2.75,4.75h-4.34c-0.32-0.78-0.78-1.36-1.37-1.77c-0.59-0.4-1.27-0.61-2.02-0.61c-1.22,0-2.2,0.49-2.95,1.45
			c-0.75,0.97-1.13,2.26-1.13,3.88c0,1.62,0.38,2.91,1.13,3.88c0.75,0.97,1.74,1.45,2.95,1.45c0.75,0,1.43-0.2,2.02-0.61
			c0.59-0.41,1.05-0.99,1.37-1.77h4.34c-0.46,2.01-1.38,3.59-2.75,4.74c-1.37,1.15-3.02,1.73-4.94,1.73c-1.57,0-2.97-0.4-4.21-1.2
			c-1.24-0.8-2.2-1.91-2.9-3.34c-0.69-1.43-1.04-3.05-1.04-4.89C288.59,286.96,288.93,285.32,289.63,283.89z"/>
		<path class="st7" d="M315.68,283.16v3.75h5.28v3.49h-5.28v4.07h5.98v3.62h-9.92v-18.54h9.92v3.62H315.68z"/>
		<path class="st7" d="M338.71,298.08h-3.95l-6.6-11.44v11.44h-3.95v-18.54h3.95l6.6,11.49v-11.49h3.95V298.08z"/>
		<path class="st7" d="M345.52,283.16v3.75h5.28v3.49h-5.28v4.07h5.98v3.62h-9.92v-18.54h9.92v3.62H345.52z"/>
		<path class="st7" d="M362.32,298.08l-3.37-7H358v7h-3.95v-18.54h6.62c1.28,0,2.37,0.25,3.27,0.77s1.57,1.21,2.02,2.1
			c0.45,0.89,0.67,1.88,0.67,2.97c0,1.23-0.3,2.33-0.91,3.3c-0.61,0.97-1.5,1.65-2.69,2.06l3.74,7.34H362.32z M358,287.89h2.45
			c0.72,0,1.26-0.2,1.63-0.61c0.36-0.41,0.54-0.98,0.54-1.72c0-0.7-0.18-1.26-0.54-1.66c-0.36-0.41-0.9-0.61-1.63-0.61H358V287.89z"
			/>
		<path class="st7" d="M379.86,285.41c-0.29-0.62-0.71-1.09-1.26-1.41c-0.55-0.33-1.19-0.49-1.93-0.49c-1.28,0-2.3,0.48-3.07,1.44
			c-0.77,0.96-1.15,2.24-1.15,3.84c0,1.71,0.4,3.04,1.21,4c0.81,0.96,1.92,1.44,3.33,1.44c0.97,0,1.79-0.28,2.46-0.84
			c0.67-0.56,1.16-1.37,1.47-2.43h-5.01v-3.33h8.58v4.2c-0.29,1.13-0.79,2.17-1.49,3.14c-0.7,0.97-1.59,1.75-2.67,2.35
			c-1.08,0.6-2.29,0.9-3.65,0.9c-1.6,0-3.03-0.4-4.28-1.2c-1.25-0.8-2.23-1.91-2.93-3.34c-0.7-1.43-1.05-3.05-1.05-4.89
			c0-1.83,0.35-3.46,1.05-4.9c0.7-1.43,1.67-2.55,2.92-3.35c1.25-0.8,2.67-1.2,4.27-1.2c1.94,0,3.57,0.54,4.9,1.61
			c1.33,1.07,2.21,2.56,2.64,4.46H379.86z"/>
		<path class="st7" d="M400.58,279.54l-5.61,12.41v6.13h-3.95v-6.13l-5.61-12.41h4.48l3.14,7.76l3.12-7.76H400.58z"/>
		<path class="st7" d="M409.74,297.61c-0.94-0.44-1.69-1.09-2.25-1.95c-0.56-0.86-0.86-1.9-0.89-3.12h4.2
			c0.06,0.69,0.27,1.21,0.62,1.57c0.35,0.36,0.82,0.54,1.39,0.54c0.58,0,1.05-0.15,1.38-0.46c0.34-0.31,0.51-0.74,0.51-1.28
			c0-0.46-0.14-0.84-0.4-1.14c-0.27-0.3-0.6-0.55-0.99-0.74c-0.39-0.19-0.95-0.41-1.67-0.66c-1.05-0.37-1.9-0.74-2.56-1.11
			c-0.66-0.37-1.23-0.91-1.71-1.64c-0.48-0.72-0.72-1.66-0.72-2.83c0-1.73,0.55-3.08,1.64-4.05c1.09-0.98,2.52-1.47,4.27-1.47
			c1.78,0,3.22,0.49,4.31,1.47c1.09,0.98,1.68,2.34,1.75,4.08h-4.27c-0.03-0.6-0.22-1.07-0.58-1.41c-0.35-0.34-0.81-0.51-1.36-0.51
			c-0.48,0-0.86,0.15-1.15,0.44c-0.29,0.29-0.44,0.71-0.44,1.25c0,0.6,0.25,1.07,0.74,1.4c0.49,0.33,1.26,0.7,2.31,1.08
			c1.05,0.41,1.9,0.79,2.55,1.16c0.65,0.37,1.22,0.91,1.7,1.61c0.48,0.7,0.72,1.61,0.72,2.72c0,1.06-0.23,2.02-0.7,2.88
			c-0.47,0.86-1.15,1.55-2.04,2.06c-0.89,0.51-1.95,0.77-3.16,0.77C411.74,298.27,410.68,298.05,409.74,297.61z"/>
		<path class="st7" d="M424.73,297.05c-1.27-0.81-2.28-1.94-3.02-3.39c-0.75-1.45-1.12-3.09-1.12-4.9c0-1.81,0.37-3.44,1.12-4.89
			c0.75-1.44,1.75-2.57,3.02-3.38c1.27-0.81,2.66-1.22,4.19-1.22c1.52,0,2.92,0.41,4.19,1.22c1.27,0.81,2.27,1.94,3,3.38
			c0.73,1.44,1.1,3.07,1.1,4.89c0,1.81-0.37,3.45-1.11,4.9c-0.74,1.45-1.74,2.58-3,3.39c-1.26,0.81-2.65,1.22-4.18,1.22
			C427.4,298.27,426,297.86,424.73,297.05z M432.02,292.67c0.78-0.99,1.17-2.29,1.17-3.91c0-1.64-0.39-2.94-1.17-3.92
			c-0.78-0.98-1.81-1.47-3.1-1.47c-1.31,0-2.35,0.48-3.13,1.45c-0.78,0.97-1.17,2.28-1.17,3.94c0,1.64,0.39,2.95,1.17,3.92
			c0.78,0.98,1.82,1.47,3.13,1.47C430.21,294.15,431.25,293.66,432.02,292.67z"/>
		<path class="st7" d="M443.34,294.6h5.17v3.49h-9.12v-18.54h3.95V294.6z"/>
		<path class="st7" d="M454.28,279.54v11.09c0,1.11,0.24,1.96,0.72,2.56c0.48,0.6,1.18,0.9,2.1,0.9c0.92,0,1.63-0.3,2.12-0.9
			s0.74-1.45,0.74-2.56v-11.09h3.95v11.07c0,1.65-0.31,3.05-0.92,4.2c-0.61,1.15-1.44,2.01-2.48,2.59c-1.04,0.58-2.2,0.87-3.47,0.87
			s-2.42-0.29-3.43-0.86c-1.01-0.57-1.8-1.43-2.39-2.59c-0.58-1.15-0.88-2.56-0.88-4.21v-11.07H454.28z"/>
		<path class="st7" d="M478.33,279.54v3.62h-4.29v14.92h-3.95v-14.92h-4.29v-3.62H478.33z"/>
		<path class="st7" d="M484.26,279.54v18.54h-3.95v-18.54H484.26z"/>
		<path class="st7" d="M490.59,297.05c-1.27-0.81-2.28-1.94-3.02-3.39c-0.75-1.45-1.12-3.09-1.12-4.9c0-1.81,0.37-3.44,1.12-4.89
			c0.75-1.44,1.75-2.57,3.02-3.38c1.27-0.81,2.66-1.22,4.19-1.22c1.52,0,2.92,0.41,4.19,1.22c1.27,0.81,2.27,1.94,3,3.38
			c0.73,1.44,1.1,3.07,1.1,4.89c0,1.81-0.37,3.45-1.11,4.9c-0.74,1.45-1.74,2.58-3,3.39c-1.26,0.81-2.65,1.22-4.18,1.22
			C493.26,298.27,491.86,297.86,490.59,297.05z M497.88,292.67c0.78-0.99,1.17-2.29,1.17-3.91c0-1.64-0.39-2.94-1.17-3.92
			c-0.78-0.98-1.81-1.47-3.1-1.47c-1.31,0-2.35,0.48-3.13,1.45c-0.78,0.97-1.17,2.28-1.17,3.94c0,1.64,0.39,2.95,1.17,3.92
			c0.78,0.98,1.82,1.47,3.13,1.47C496.07,294.15,497.11,293.66,497.88,292.67z"/>
		<path class="st7" d="M519.75,298.08h-3.95l-6.6-11.44v11.44h-3.95v-18.54h3.95l6.6,11.49v-11.49h3.95V298.08z"/>
		<g>
			<path class="st7" d="M254.59,286.97c-1.04,0-1.89-0.85-1.89-1.89v-7.64c0-1.04,0.85-1.89,1.89-1.89c1.04,0,1.89,0.85,1.89,1.89
				v7.64C256.49,286.12,255.64,286.97,254.59,286.97z"/>
		</g>
	</g>
</g>
</svg>
